# xmcd
#
# Track frame offsets: 
#        183
#        18540
#        37390
#        56163
#        73443
#        91428
#        109900
#        130733
#        151495
#        171860
#        191288
#
# Disc length: 2857 seconds
#
# Revision: 2
# Processed by: cddbd v1.5PL3 Copyright (c) Steve Scherf et al.
# Submitted via: ExactAudioCopy v0.95a4
#
DISCID=a20b270b
DTITLE=Toto Cutugno - Mediterraneo
DYEAR=1900
DGENRE=Blues
TTITLE0=Una Domenica Italiana
TTITLE1=Io Amo
TTITLE2=Figli
TTITLE3=C'est Venice
TTITLE4=Il Sognatore
TTITLE5=Hei Guarda Chi C'è
TTITLE6=Mediterraneo
TTITLE7=Canzone D'Amore
TTITLE8=Napoli
TTITLE9=Amico del Cuore
TTITLE10=Caspita
EXTD=
EXTT0=
EXTT1=
EXTT2=
EXTT3=
EXTT4=
EXTT5=
EXTT6=
EXTT7=
EXTT8=
EXTT9=
EXTT10=
PLAYORDER=
